<?xml version="1.0" encoding="utf-8"?>
<!-- Generator: Adobe Illustrator 21.0.0, SVG Export Plug-In . SVG Version: 6.00 Build 0)  -->
<svg version="1.1" id="Layer_1" xmlns="http://www.w3.org/2000/svg" xmlns:xlink="http://www.w3.org/1999/xlink" x="0px" y="0px"
	 viewBox="0 0 572 240" style="enable-background:new 0 0 572 240;" xml:space="preserve">
<style type="text/css">
	.st0{fill:#3FB54A;}
	.st1{font-family:'Futura-Bold';}
	.st2{font-size:45px;}
	.st3{fill:#AED136;}
	.st4{fill:#8AC640;}
	.st5{fill:#FFFFFF;}
</style>
<text transform="matrix(1 0 0 1 214.4774 135.1692)" class="st0 st1 st2">greenWing</text>
<g>
	<path class="st3" d="M90.9,157.8c0-18.5,5.2-36.9,14.6-51.2c11.5-17.6,29-28.3,50.8-31.1c-1,3.5-2,7.1-3,10.9
		c-2,7.5-1.9,8.5-4.4,15.8c2.1-0.6,5.2-1,7.7-1.1c2.3-6.9,1.7-5.9,3.5-12.8c1.5-5.5,2.9-10.7,4.5-15.7l1.2-3.7
		c0.2-0.6-0.3-1.1-0.9-1.1l-3.9,0.3c-26.4,1.9-47.6,14-61.2,34.8c-10.3,15.7-15.9,36-15.7,56.2c2.3,0.7,4.7,1.4,7,2.1
		C90.9,160.3,90.9,159.4,90.9,157.8z"/>
	<g>
		<path class="st4" d="M178.8,106.5l-4-0.8c-20.7-4.1-39.6,0.7-54.6,13.9c-11.8,10.4-20.7,25.8-24.5,42.3c0,0.2-0.1,0.3-0.1,0.5
			c2.3,0.6,4.6,1.2,6.8,1.8c0.2-1,0.5-2.5,1.1-4.5c3.9-13.6,11.6-26.1,21.4-34.8c12-10.6,27-15.1,43.5-13.1c-1.3,2.2-2.6,4.4-4,6.7
			c-3.9,6.7-7.3,12.6-11.9,18.6c2.5,0.4,4.8,0.8,7.4,1.6c4.3-5.9,7-10.8,10.5-16.7c2.3-3.9,4.4-7.5,6.7-11l2.2-3.4
			C179.6,107.2,179.4,106.6,178.8,106.5z"/>
	</g>
	<g>
		<path class="st5" d="M123,161.4c22.5,4.2,33-3,40.6-11.1c-13.3-5.6-33.4-5.5-45.6,10.1c-0.5,0.6-1.5,1.9-2.5,3.3l2.4,0.5
			c0.7,0.2,1.5,0.3,2.2,0.4C121.4,162.7,123,161.4,123,161.4z"/>
	</g>
	<g>
		<path class="st0" d="M113.5,166.5c0.5-0.9,1.2-1.9,1.9-2.8l-0.4-0.1c-1.2-0.3-2.5-0.6-3.8-1c9.2-15.2,32.7-27.1,57-13.4
			c-10.2,12.7-24.3,20-48.2,15.5c-0.6,0.9-1.2,1.9-1.6,2.9c5,1.1,8.7,1.6,13.2,1.8c16.9,0.7,30-5.2,40.3-18.1l1.8-2.3
			c0.4-0.5,0.3-1.2-0.3-1.6l-2.5-1.4c-24.7-13.9-50.8-3.4-61.7,14.7c-1.3,2.1-2,3.1-2.6,4.5c1.6,0.4,3.1,0.8,4.6,1.1L113.5,166.5z"
			/>
	</g>
	<g>
		<path class="st0" d="M168.2,149.2c-24.3-13.6-47.8-1.8-57,13.4c1.3,0.4,2.6,0.7,3.8,1l0.4,0.1c1-1.4,2-2.7,2.5-3.3
			c12.2-15.6,32.3-15.7,45.6-10.1c-7.6,8.1-18.1,15.3-40.6,11.1c0,0-1.6,1.4-3,3.3C143.8,169.1,158,161.9,168.2,149.2z"/>
	</g>
</g>
</svg>
